# xmcd
#
# Track frame offsets: 
#        150
#        18915
#        47085
#        63580
#        94765
#        110438
#        137525
#        157373
#        181465
#        200413
#        226285
#
# Disc length: 3242 seconds
#
# Revision: 2
# Processed by: cddbd v1.5.2PL0 Copyright (c) Steve Scherf et al.
# Submitted via: ExactAudioCopy v1.0b3
#
DISCID=950ca80b
DTITLE=John Primer - Poor Man Blues
DYEAR=1991
DGENRE=Blues
TTITLE0=Add A Little Touch
TTITLE1=Smile In Your Face
TTITLE2=Poor Man Blues
TTITLE3=If I Could Hold You In My Arms
TTITLE4=Hiding Place
TTITLE5=I'm A Blues Man
TTITLE6=My Eyes Keep Me in Trouble
TTITLE7=My Baby Don't Love Me
TTITLE8=Try My Lovin'
TTITLE9=Corrine
TTITLE10=Forgive Not Forget
EXTD=YEAR: 1991
EXTT0=
EXTT1=
EXTT2=
EXTT3=
EXTT4=
EXTT5=
EXTT6=
EXTT7=
EXTT8=
EXTT9=
EXTT10=
PLAYORDER=
